<svg width="74" height="75" viewBox="0 0 74 75" fill="none" xmlns="http://www.w3.org/2000/svg">
<rect opacity="0.75" y="0.5" width="74" height="74" rx="24" fill="#DFE8FF"/>
<path fill-rule="evenodd" clip-rule="evenodd" d="M45.4856 22.9751C45.4856 27.4171 49.0918 31.018 53.5403 31.018C54.0301 31.0156 54.5187 30.9686 55 30.8776V46.8229C55 53.5312 51.043 57.5 44.3249 57.5H29.6927C22.957 57.5 19 53.5312 19 46.8229V32.2122C19 25.5039 22.957 21.5 29.6927 21.5H45.6263C45.5317 21.986 45.4846 22.48 45.4856 22.9751ZM41.2999 43.2932L47.0156 35.9176V35.8824C47.5049 35.2249 47.3801 34.2978 46.7342 33.7927C46.4216 33.5514 46.0244 33.4469 45.6333 33.5032C45.2422 33.5594 44.8907 33.7716 44.659 34.0912L39.8403 40.2902L34.3532 35.9702C34.0399 35.7262 33.6414 35.6184 33.2476 35.6713C32.8538 35.7242 32.498 35.9332 32.2604 36.2512L26.3512 43.8727C26.1435 44.1316 26.0317 44.4541 26.0347 44.7859C26.0004 45.4563 26.4237 46.0653 27.0648 46.2676C27.7058 46.47 28.4028 46.2146 28.7606 45.6463L33.7025 39.2541L39.1895 43.5566C39.5016 43.8082 39.9028 43.9223 40.3008 43.8726C40.6988 43.8229 41.0595 43.6137 41.2999 43.2932Z" fill="#0C61AF"/>
<circle opacity="0.4" cx="54" cy="22.5" r="5" fill="#0C61AF"/>
</svg>
