<svg width="24" height="24" viewBox="0 0 24 24" fill="none" xmlns="http://www.w3.org/2000/svg">
<path d="M3.50026 13.9124V13.7079C3.53517 13.0531 3.74183 12.4187 4.09972 11.8677C4.69648 11.1991 5.10673 10.3869 5.28969 9.51192C5.33442 8.84518 5.28969 8.16066 5.33442 7.48503C5.65652 4.24024 8.86855 2 11.9464 2H12.0358C15.1674 2 18.2989 4.24024 18.6389 7.48503C18.7015 8.15177 18.6389 8.84518 18.6925 9.51192C18.871 10.3884 19.2818 11.2017 19.8825 11.8677C20.2559 12.4124 20.4697 13.0495 20.4999 13.7079V13.9124C20.5054 14.7993 20.1875 15.6582 19.6051 16.3304C18.858 17.1274 17.8423 17.624 16.751 17.7261C13.5641 18.135 10.3376 18.135 7.1507 17.7261C6.07205 17.6157 5.0705 17.1197 4.33234 16.3304C3.7682 15.6518 3.47238 14.7921 3.50026 13.9124Z" fill="white"/>
<path opacity="0.4" d="M13.1632 19.095C12.5279 19.0505 12.009 19.095 11.4901 19.095C10.9754 19.0861 10.4616 19.1398 9.96011 19.255C9.53064 19.3528 9.06539 19.5839 9.06539 20.0728C9.11045 20.5454 9.36663 20.9729 9.76327 21.2374C10.5273 21.8209 11.4902 22.0856 12.4474 21.9753C13.3779 21.9066 14.2284 21.427 14.7647 20.6685C15.0612 20.2841 14.9936 19.7348 14.6126 19.4328C14.1616 19.2123 13.6659 19.0967 13.1632 19.095Z" fill="white"/>
</svg>
